<mxfile host="Electron" agent="Mozilla/5.0 (X11; Linux x86_64) AppleWebKit/537.36 (KHTML, like Gecko) draw.io/25.0.1 Chrome/128.0.6613.186 Electron/32.2.6 Safari/537.36" version="25.0.1">
  <diagram id="C5RBs43oDa-KdzZeNtuy" name="Page-1">
    <mxGraphModel dx="1195" dy="697" grid="1" gridSize="10" guides="1" tooltips="1" connect="1" arrows="1" fold="1" page="1" pageScale="1" pageWidth="827" pageHeight="1169" math="0" shadow="0">
      <root>
        <mxCell id="WIyWlLk6GJQsqaUBKTNV-0" />
        <mxCell id="WIyWlLk6GJQsqaUBKTNV-1" parent="WIyWlLk6GJQsqaUBKTNV-0" />
        <mxCell id="ptmRUTfebEnuRYv2-NBV-6" style="edgeStyle=orthogonalEdgeStyle;rounded=0;orthogonalLoop=1;jettySize=auto;html=1;exitX=1;exitY=0.5;exitDx=0;exitDy=0;entryX=0;entryY=0.5;entryDx=0;entryDy=0;endArrow=none;endFill=0;align=center;" parent="WIyWlLk6GJQsqaUBKTNV-1" source="ptmRUTfebEnuRYv2-NBV-0" target="ptmRUTfebEnuRYv2-NBV-4" edge="1">
          <mxGeometry relative="1" as="geometry" />
        </mxCell>
        <mxCell id="ptmRUTfebEnuRYv2-NBV-28" style="edgeStyle=orthogonalEdgeStyle;rounded=0;orthogonalLoop=1;jettySize=auto;html=1;exitX=0.5;exitY=1;exitDx=0;exitDy=0;entryX=0.5;entryY=0;entryDx=0;entryDy=0;endArrow=none;endFill=0;align=center;" parent="WIyWlLk6GJQsqaUBKTNV-1" source="ptmRUTfebEnuRYv2-NBV-0" target="ptmRUTfebEnuRYv2-NBV-27" edge="1">
          <mxGeometry relative="1" as="geometry" />
        </mxCell>
        <mxCell id="ptmRUTfebEnuRYv2-NBV-0" value="&lt;span class=&quot;HwtZe&quot; lang=&quot;en&quot;&gt;categorie&lt;/span&gt;" style="rounded=0;whiteSpace=wrap;html=1;align=center;" parent="WIyWlLk6GJQsqaUBKTNV-1" vertex="1">
          <mxGeometry x="160" y="480" width="120" height="40" as="geometry" />
        </mxCell>
        <mxCell id="ptmRUTfebEnuRYv2-NBV-7" style="edgeStyle=orthogonalEdgeStyle;rounded=0;orthogonalLoop=1;jettySize=auto;html=1;exitX=1;exitY=0.5;exitDx=0;exitDy=0;entryX=0;entryY=0.5;entryDx=0;entryDy=0;endArrow=none;endFill=0;align=center;" parent="WIyWlLk6GJQsqaUBKTNV-1" source="ptmRUTfebEnuRYv2-NBV-1" target="ptmRUTfebEnuRYv2-NBV-0" edge="1">
          <mxGeometry relative="1" as="geometry" />
        </mxCell>
        <mxCell id="ptmRUTfebEnuRYv2-NBV-1" value="Name" style="ellipse;whiteSpace=wrap;html=1;align=center;" parent="WIyWlLk6GJQsqaUBKTNV-1" vertex="1">
          <mxGeometry x="40" y="417" width="80" height="40" as="geometry" />
        </mxCell>
        <mxCell id="ptmRUTfebEnuRYv2-NBV-8" style="edgeStyle=orthogonalEdgeStyle;rounded=0;orthogonalLoop=1;jettySize=auto;html=1;exitX=1;exitY=0.5;exitDx=0;exitDy=0;entryX=0;entryY=0.5;entryDx=0;entryDy=0;endArrow=none;endFill=0;align=center;" parent="WIyWlLk6GJQsqaUBKTNV-1" source="ptmRUTfebEnuRYv2-NBV-2" target="ptmRUTfebEnuRYv2-NBV-0" edge="1">
          <mxGeometry relative="1" as="geometry" />
        </mxCell>
        <mxCell id="ptmRUTfebEnuRYv2-NBV-2" value="&lt;u&gt;ID&lt;/u&gt;" style="ellipse;whiteSpace=wrap;html=1;align=center;" parent="WIyWlLk6GJQsqaUBKTNV-1" vertex="1">
          <mxGeometry x="40" y="360" width="80" height="40" as="geometry" />
        </mxCell>
        <mxCell id="ptmRUTfebEnuRYv2-NBV-9" style="edgeStyle=orthogonalEdgeStyle;rounded=0;orthogonalLoop=1;jettySize=auto;html=1;exitX=1;exitY=0.5;exitDx=0;exitDy=0;entryX=0;entryY=0.5;entryDx=0;entryDy=0;endArrow=none;endFill=0;align=center;" parent="WIyWlLk6GJQsqaUBKTNV-1" source="ptmRUTfebEnuRYv2-NBV-3" target="ptmRUTfebEnuRYv2-NBV-0" edge="1">
          <mxGeometry relative="1" as="geometry" />
        </mxCell>
        <mxCell id="ptmRUTfebEnuRYv2-NBV-3" value="Image&amp;nbsp;&lt;span class=&quot;HwtZe&quot; lang=&quot;en&quot;&gt;path&lt;/span&gt;" style="ellipse;whiteSpace=wrap;html=1;align=center;" parent="WIyWlLk6GJQsqaUBKTNV-1" vertex="1">
          <mxGeometry x="40" y="480" width="80" height="40" as="geometry" />
        </mxCell>
        <mxCell id="ptmRUTfebEnuRYv2-NBV-10" style="edgeStyle=orthogonalEdgeStyle;rounded=0;orthogonalLoop=1;jettySize=auto;html=1;exitX=0.5;exitY=1;exitDx=0;exitDy=0;entryX=0.75;entryY=1;entryDx=0;entryDy=0;endArrow=none;endFill=0;align=center;" parent="WIyWlLk6GJQsqaUBKTNV-1" source="ptmRUTfebEnuRYv2-NBV-4" target="ptmRUTfebEnuRYv2-NBV-0" edge="1">
          <mxGeometry relative="1" as="geometry" />
        </mxCell>
        <mxCell id="UTgqOE8mSKzdRIAE9cUG-16" style="edgeStyle=orthogonalEdgeStyle;rounded=0;orthogonalLoop=1;jettySize=auto;html=1;exitX=0.5;exitY=0;exitDx=0;exitDy=0;entryX=0.5;entryY=1;entryDx=0;entryDy=0;endArrow=none;endFill=0;align=center;" edge="1" parent="WIyWlLk6GJQsqaUBKTNV-1" source="ptmRUTfebEnuRYv2-NBV-4" target="UTgqOE8mSKzdRIAE9cUG-15">
          <mxGeometry relative="1" as="geometry" />
        </mxCell>
        <mxCell id="ptmRUTfebEnuRYv2-NBV-4" value="subcatergories" style="rhombus;whiteSpace=wrap;html=1;align=center;" parent="WIyWlLk6GJQsqaUBKTNV-1" vertex="1">
          <mxGeometry x="320" y="460" width="120" height="80" as="geometry" />
        </mxCell>
        <mxCell id="ptmRUTfebEnuRYv2-NBV-11" value="*" style="text;html=1;align=center;verticalAlign=middle;resizable=0;points=[];autosize=1;strokeColor=none;fillColor=none;" parent="WIyWlLk6GJQsqaUBKTNV-1" vertex="1">
          <mxGeometry x="241" y="514" width="30" height="30" as="geometry" />
        </mxCell>
        <mxCell id="ptmRUTfebEnuRYv2-NBV-12" value="*" style="text;html=1;align=center;verticalAlign=middle;resizable=0;points=[];autosize=1;strokeColor=none;fillColor=none;" parent="WIyWlLk6GJQsqaUBKTNV-1" vertex="1">
          <mxGeometry x="270" y="479" width="30" height="30" as="geometry" />
        </mxCell>
        <mxCell id="ptmRUTfebEnuRYv2-NBV-33" style="edgeStyle=orthogonalEdgeStyle;rounded=0;orthogonalLoop=1;jettySize=auto;html=1;exitX=1;exitY=0.5;exitDx=0;exitDy=0;entryX=0;entryY=0.5;entryDx=0;entryDy=0;endArrow=none;endFill=0;align=center;" parent="WIyWlLk6GJQsqaUBKTNV-1" source="ptmRUTfebEnuRYv2-NBV-14" target="ptmRUTfebEnuRYv2-NBV-32" edge="1">
          <mxGeometry relative="1" as="geometry" />
        </mxCell>
        <mxCell id="ptmRUTfebEnuRYv2-NBV-14" value="&lt;span class=&quot;HwtZe&quot; lang=&quot;en&quot;&gt;Product&lt;/span&gt;" style="rounded=0;whiteSpace=wrap;html=1;align=center;" parent="WIyWlLk6GJQsqaUBKTNV-1" vertex="1">
          <mxGeometry x="160" y="840" width="120" height="40" as="geometry" />
        </mxCell>
        <mxCell id="ptmRUTfebEnuRYv2-NBV-24" style="edgeStyle=orthogonalEdgeStyle;rounded=0;orthogonalLoop=1;jettySize=auto;html=1;exitX=1;exitY=0.5;exitDx=0;exitDy=0;entryX=0;entryY=0.5;entryDx=0;entryDy=0;endArrow=none;endFill=0;align=center;" parent="WIyWlLk6GJQsqaUBKTNV-1" source="ptmRUTfebEnuRYv2-NBV-15" target="ptmRUTfebEnuRYv2-NBV-14" edge="1">
          <mxGeometry relative="1" as="geometry" />
        </mxCell>
        <mxCell id="ptmRUTfebEnuRYv2-NBV-15" value="&lt;u&gt;ID&lt;/u&gt;" style="ellipse;whiteSpace=wrap;html=1;align=center;" parent="WIyWlLk6GJQsqaUBKTNV-1" vertex="1">
          <mxGeometry x="40" y="560" width="80" height="40" as="geometry" />
        </mxCell>
        <mxCell id="ptmRUTfebEnuRYv2-NBV-23" style="edgeStyle=orthogonalEdgeStyle;rounded=0;orthogonalLoop=1;jettySize=auto;html=1;exitX=1;exitY=0.5;exitDx=0;exitDy=0;entryX=0;entryY=0.5;entryDx=0;entryDy=0;endArrow=none;endFill=0;align=center;" parent="WIyWlLk6GJQsqaUBKTNV-1" source="ptmRUTfebEnuRYv2-NBV-17" target="ptmRUTfebEnuRYv2-NBV-14" edge="1">
          <mxGeometry relative="1" as="geometry" />
        </mxCell>
        <mxCell id="ptmRUTfebEnuRYv2-NBV-17" value="Name" style="ellipse;whiteSpace=wrap;html=1;align=center;" parent="WIyWlLk6GJQsqaUBKTNV-1" vertex="1">
          <mxGeometry x="40" y="640" width="80" height="40" as="geometry" />
        </mxCell>
        <mxCell id="ptmRUTfebEnuRYv2-NBV-26" style="edgeStyle=orthogonalEdgeStyle;rounded=0;orthogonalLoop=1;jettySize=auto;html=1;exitX=1;exitY=0.5;exitDx=0;exitDy=0;entryX=0;entryY=0.5;entryDx=0;entryDy=0;endArrow=none;endFill=0;align=center;" parent="WIyWlLk6GJQsqaUBKTNV-1" source="ptmRUTfebEnuRYv2-NBV-19" target="ptmRUTfebEnuRYv2-NBV-14" edge="1">
          <mxGeometry relative="1" as="geometry" />
        </mxCell>
        <mxCell id="ptmRUTfebEnuRYv2-NBV-19" value="Image&amp;nbsp;&lt;span class=&quot;HwtZe&quot; lang=&quot;en&quot;&gt;path&lt;/span&gt;" style="ellipse;whiteSpace=wrap;html=1;align=center;" parent="WIyWlLk6GJQsqaUBKTNV-1" vertex="1">
          <mxGeometry x="40" y="960" width="80" height="40" as="geometry" />
        </mxCell>
        <mxCell id="ptmRUTfebEnuRYv2-NBV-22" style="edgeStyle=orthogonalEdgeStyle;rounded=0;orthogonalLoop=1;jettySize=auto;html=1;exitX=1;exitY=0.5;exitDx=0;exitDy=0;entryX=0;entryY=0.5;entryDx=0;entryDy=0;endArrow=none;endFill=0;align=center;" parent="WIyWlLk6GJQsqaUBKTNV-1" source="ptmRUTfebEnuRYv2-NBV-20" target="ptmRUTfebEnuRYv2-NBV-14" edge="1">
          <mxGeometry relative="1" as="geometry" />
        </mxCell>
        <mxCell id="ptmRUTfebEnuRYv2-NBV-20" value="&lt;div class=&quot;lRu31&quot; dir=&quot;ltr&quot;&gt;&lt;span class=&quot;HwtZe&quot; lang=&quot;en&quot;&gt;Description&lt;/span&gt;&lt;span class=&quot;ZSCsVd&quot;&gt;&lt;/span&gt;&lt;div class=&quot;OvtS8d&quot;&gt;&lt;/div&gt;&lt;div id=&quot;ow11&quot;&gt;&lt;/div&gt;&lt;/div&gt;&lt;div aria-hidden=&quot;true&quot; class=&quot;UdTY9 WdefRb&quot; data-location=&quot;2&quot;&gt;&lt;div class=&quot;kO6q6e&quot;&gt;&lt;/div&gt;&lt;/div&gt;" style="ellipse;whiteSpace=wrap;html=1;align=center;" parent="WIyWlLk6GJQsqaUBKTNV-1" vertex="1">
          <mxGeometry x="40" y="801" width="80" height="40" as="geometry" />
        </mxCell>
        <mxCell id="ptmRUTfebEnuRYv2-NBV-25" style="edgeStyle=orthogonalEdgeStyle;rounded=0;orthogonalLoop=1;jettySize=auto;html=1;exitX=1;exitY=0.5;exitDx=0;exitDy=0;entryX=0;entryY=0.5;entryDx=0;entryDy=0;endArrow=none;endFill=0;align=center;" parent="WIyWlLk6GJQsqaUBKTNV-1" source="ptmRUTfebEnuRYv2-NBV-21" target="ptmRUTfebEnuRYv2-NBV-14" edge="1">
          <mxGeometry relative="1" as="geometry" />
        </mxCell>
        <mxCell id="ptmRUTfebEnuRYv2-NBV-21" value="&lt;div class=&quot;lRu31&quot; dir=&quot;ltr&quot;&gt;Prise&lt;div class=&quot;OvtS8d&quot;&gt;&lt;/div&gt;&lt;div id=&quot;ow11&quot;&gt;&lt;/div&gt;&lt;/div&gt;&lt;div aria-hidden=&quot;true&quot; class=&quot;UdTY9 WdefRb&quot; data-location=&quot;2&quot;&gt;&lt;div class=&quot;kO6q6e&quot;&gt;&lt;/div&gt;&lt;/div&gt;" style="ellipse;whiteSpace=wrap;html=1;align=center;" parent="WIyWlLk6GJQsqaUBKTNV-1" vertex="1">
          <mxGeometry x="40" y="880" width="80" height="40" as="geometry" />
        </mxCell>
        <mxCell id="ptmRUTfebEnuRYv2-NBV-29" style="edgeStyle=orthogonalEdgeStyle;rounded=0;orthogonalLoop=1;jettySize=auto;html=1;exitX=0.5;exitY=1;exitDx=0;exitDy=0;endArrow=none;endFill=0;align=center;" parent="WIyWlLk6GJQsqaUBKTNV-1" source="ptmRUTfebEnuRYv2-NBV-27" target="ptmRUTfebEnuRYv2-NBV-14" edge="1">
          <mxGeometry relative="1" as="geometry" />
        </mxCell>
        <mxCell id="ptmRUTfebEnuRYv2-NBV-27" value="product&lt;div&gt;categorie&lt;/div&gt;" style="rhombus;whiteSpace=wrap;html=1;align=center;" parent="WIyWlLk6GJQsqaUBKTNV-1" vertex="1">
          <mxGeometry x="160" y="579" width="120" height="80" as="geometry" />
        </mxCell>
        <mxCell id="ptmRUTfebEnuRYv2-NBV-30" value="*" style="text;html=1;align=center;verticalAlign=middle;resizable=0;points=[];autosize=1;strokeColor=none;fillColor=none;" parent="WIyWlLk6GJQsqaUBKTNV-1" vertex="1">
          <mxGeometry x="211" y="820" width="30" height="30" as="geometry" />
        </mxCell>
        <mxCell id="ptmRUTfebEnuRYv2-NBV-31" value="1" style="text;html=1;align=center;verticalAlign=middle;resizable=0;points=[];autosize=1;strokeColor=none;fillColor=none;" parent="WIyWlLk6GJQsqaUBKTNV-1" vertex="1">
          <mxGeometry x="211" y="514" width="30" height="30" as="geometry" />
        </mxCell>
        <mxCell id="ptmRUTfebEnuRYv2-NBV-35" style="edgeStyle=orthogonalEdgeStyle;rounded=0;orthogonalLoop=1;jettySize=auto;html=1;exitX=1;exitY=0.5;exitDx=0;exitDy=0;entryX=0;entryY=0.5;entryDx=0;entryDy=0;endArrow=none;endFill=0;align=center;" parent="WIyWlLk6GJQsqaUBKTNV-1" source="ptmRUTfebEnuRYv2-NBV-32" target="ptmRUTfebEnuRYv2-NBV-34" edge="1">
          <mxGeometry relative="1" as="geometry" />
        </mxCell>
        <mxCell id="ptmRUTfebEnuRYv2-NBV-32" value="reviews" style="rhombus;whiteSpace=wrap;html=1;align=center;" parent="WIyWlLk6GJQsqaUBKTNV-1" vertex="1">
          <mxGeometry x="320" y="820" width="120" height="80" as="geometry" />
        </mxCell>
        <mxCell id="ptmRUTfebEnuRYv2-NBV-40" style="edgeStyle=orthogonalEdgeStyle;rounded=0;orthogonalLoop=1;jettySize=auto;html=1;exitX=1;exitY=0.5;exitDx=0;exitDy=0;entryX=0;entryY=0.5;entryDx=0;entryDy=0;endArrow=none;endFill=0;align=center;" parent="WIyWlLk6GJQsqaUBKTNV-1" source="ptmRUTfebEnuRYv2-NBV-34" target="ptmRUTfebEnuRYv2-NBV-36" edge="1">
          <mxGeometry relative="1" as="geometry" />
        </mxCell>
        <mxCell id="ptmRUTfebEnuRYv2-NBV-43" style="edgeStyle=orthogonalEdgeStyle;rounded=0;orthogonalLoop=1;jettySize=auto;html=1;exitX=1;exitY=0.5;exitDx=0;exitDy=0;entryX=0;entryY=0.5;entryDx=0;entryDy=0;endArrow=none;endFill=0;align=center;" parent="WIyWlLk6GJQsqaUBKTNV-1" source="ptmRUTfebEnuRYv2-NBV-34" target="ptmRUTfebEnuRYv2-NBV-38" edge="1">
          <mxGeometry relative="1" as="geometry" />
        </mxCell>
        <mxCell id="ptmRUTfebEnuRYv2-NBV-44" style="edgeStyle=orthogonalEdgeStyle;rounded=0;orthogonalLoop=1;jettySize=auto;html=1;exitX=1;exitY=0.5;exitDx=0;exitDy=0;entryX=0;entryY=0.5;entryDx=0;entryDy=0;endArrow=none;endFill=0;align=center;" parent="WIyWlLk6GJQsqaUBKTNV-1" source="ptmRUTfebEnuRYv2-NBV-34" target="ptmRUTfebEnuRYv2-NBV-39" edge="1">
          <mxGeometry relative="1" as="geometry" />
        </mxCell>
        <mxCell id="ptmRUTfebEnuRYv2-NBV-97" style="edgeStyle=orthogonalEdgeStyle;rounded=0;orthogonalLoop=1;jettySize=auto;html=1;exitX=1;exitY=0.5;exitDx=0;exitDy=0;entryX=0;entryY=0.5;entryDx=0;entryDy=0;endArrow=none;endFill=0;align=center;" parent="WIyWlLk6GJQsqaUBKTNV-1" source="ptmRUTfebEnuRYv2-NBV-34" target="ptmRUTfebEnuRYv2-NBV-96" edge="1">
          <mxGeometry relative="1" as="geometry" />
        </mxCell>
        <mxCell id="ptmRUTfebEnuRYv2-NBV-34" value="&lt;span class=&quot;HwtZe&quot; lang=&quot;en&quot;&gt;review&lt;/span&gt;" style="rounded=0;whiteSpace=wrap;html=1;align=center;" parent="WIyWlLk6GJQsqaUBKTNV-1" vertex="1">
          <mxGeometry x="480" y="840" width="120" height="40" as="geometry" />
        </mxCell>
        <mxCell id="ptmRUTfebEnuRYv2-NBV-36" value="&lt;u&gt;ID&lt;/u&gt;" style="ellipse;whiteSpace=wrap;html=1;align=center;" parent="WIyWlLk6GJQsqaUBKTNV-1" vertex="1">
          <mxGeometry x="640" y="760" width="80" height="40" as="geometry" />
        </mxCell>
        <mxCell id="ptmRUTfebEnuRYv2-NBV-38" value="&lt;span class=&quot;HwtZe&quot; lang=&quot;en&quot;&gt;contents&lt;/span&gt;" style="ellipse;whiteSpace=wrap;html=1;align=center;" parent="WIyWlLk6GJQsqaUBKTNV-1" vertex="1">
          <mxGeometry x="640" y="840" width="80" height="40" as="geometry" />
        </mxCell>
        <mxCell id="ptmRUTfebEnuRYv2-NBV-39" value="&lt;span class=&quot;HwtZe&quot; lang=&quot;en&quot;&gt;score&lt;/span&gt;" style="ellipse;whiteSpace=wrap;html=1;align=center;" parent="WIyWlLk6GJQsqaUBKTNV-1" vertex="1">
          <mxGeometry x="641" y="920" width="80" height="40" as="geometry" />
        </mxCell>
        <mxCell id="Vg8v48jFvNyv6tP-DnCo-38" style="edgeStyle=orthogonalEdgeStyle;rounded=0;orthogonalLoop=1;jettySize=auto;html=1;exitX=0.5;exitY=1;exitDx=0;exitDy=0;entryX=0.5;entryY=0;entryDx=0;entryDy=0;endArrow=none;endFill=0;align=center;" parent="WIyWlLk6GJQsqaUBKTNV-1" source="ptmRUTfebEnuRYv2-NBV-45" target="ptmRUTfebEnuRYv2-NBV-46" edge="1">
          <mxGeometry relative="1" as="geometry" />
        </mxCell>
        <mxCell id="UTgqOE8mSKzdRIAE9cUG-20" style="edgeStyle=orthogonalEdgeStyle;rounded=0;orthogonalLoop=1;jettySize=auto;html=1;exitX=1;exitY=0.5;exitDx=0;exitDy=0;entryX=0;entryY=0.5;entryDx=0;entryDy=0;endArrow=none;endFill=0;align=center;" edge="1" parent="WIyWlLk6GJQsqaUBKTNV-1" source="ptmRUTfebEnuRYv2-NBV-45" target="UTgqOE8mSKzdRIAE9cUG-19">
          <mxGeometry relative="1" as="geometry" />
        </mxCell>
        <mxCell id="ptmRUTfebEnuRYv2-NBV-45" value="&lt;span class=&quot;HwtZe&quot; lang=&quot;en&quot;&gt;Customer&lt;/span&gt;" style="rounded=0;whiteSpace=wrap;html=1;align=center;" parent="WIyWlLk6GJQsqaUBKTNV-1" vertex="1">
          <mxGeometry x="480" y="480" width="120" height="40" as="geometry" />
        </mxCell>
        <mxCell id="ptmRUTfebEnuRYv2-NBV-48" style="edgeStyle=orthogonalEdgeStyle;rounded=0;orthogonalLoop=1;jettySize=auto;html=1;exitX=0.5;exitY=1;exitDx=0;exitDy=0;entryX=0.5;entryY=0;entryDx=0;entryDy=0;startArrow=none;startFill=0;endArrow=none;endFill=0;align=center;" parent="WIyWlLk6GJQsqaUBKTNV-1" source="ptmRUTfebEnuRYv2-NBV-46" target="ptmRUTfebEnuRYv2-NBV-34" edge="1">
          <mxGeometry relative="1" as="geometry" />
        </mxCell>
        <mxCell id="ptmRUTfebEnuRYv2-NBV-46" value="&lt;span class=&quot;HwtZe&quot; lang=&quot;en&quot;&gt;author&lt;/span&gt;" style="rhombus;whiteSpace=wrap;html=1;align=center;" parent="WIyWlLk6GJQsqaUBKTNV-1" vertex="1">
          <mxGeometry x="480" y="600" width="120" height="80" as="geometry" />
        </mxCell>
        <mxCell id="ptmRUTfebEnuRYv2-NBV-49" value="*" style="text;html=1;align=center;verticalAlign=middle;resizable=0;points=[];autosize=1;strokeColor=none;fillColor=none;" parent="WIyWlLk6GJQsqaUBKTNV-1" vertex="1">
          <mxGeometry x="533" y="819" width="30" height="30" as="geometry" />
        </mxCell>
        <mxCell id="ptmRUTfebEnuRYv2-NBV-50" value="1" style="text;html=1;align=center;verticalAlign=middle;resizable=0;points=[];autosize=1;strokeColor=none;fillColor=none;" parent="WIyWlLk6GJQsqaUBKTNV-1" vertex="1">
          <mxGeometry x="531" y="579" width="30" height="30" as="geometry" />
        </mxCell>
        <mxCell id="ptmRUTfebEnuRYv2-NBV-57" style="edgeStyle=orthogonalEdgeStyle;rounded=0;orthogonalLoop=1;jettySize=auto;html=1;exitX=0;exitY=0.5;exitDx=0;exitDy=0;entryX=1;entryY=0.5;entryDx=0;entryDy=0;endArrow=none;endFill=0;align=center;" parent="WIyWlLk6GJQsqaUBKTNV-1" source="ptmRUTfebEnuRYv2-NBV-51" target="ptmRUTfebEnuRYv2-NBV-45" edge="1">
          <mxGeometry relative="1" as="geometry" />
        </mxCell>
        <mxCell id="ptmRUTfebEnuRYv2-NBV-51" value="&lt;u&gt;ID&lt;/u&gt;" style="ellipse;whiteSpace=wrap;html=1;align=center;" parent="WIyWlLk6GJQsqaUBKTNV-1" vertex="1">
          <mxGeometry x="640" y="320" width="80" height="40" as="geometry" />
        </mxCell>
        <mxCell id="ptmRUTfebEnuRYv2-NBV-58" style="edgeStyle=orthogonalEdgeStyle;rounded=0;orthogonalLoop=1;jettySize=auto;html=1;exitX=0;exitY=0.5;exitDx=0;exitDy=0;entryX=1;entryY=0.5;entryDx=0;entryDy=0;endArrow=none;endFill=0;align=center;" parent="WIyWlLk6GJQsqaUBKTNV-1" source="ptmRUTfebEnuRYv2-NBV-52" target="ptmRUTfebEnuRYv2-NBV-45" edge="1">
          <mxGeometry relative="1" as="geometry" />
        </mxCell>
        <mxCell id="ptmRUTfebEnuRYv2-NBV-52" value="&lt;span class=&quot;HwtZe&quot; lang=&quot;en&quot;&gt;last_name&lt;/span&gt;" style="ellipse;whiteSpace=wrap;html=1;align=center;" parent="WIyWlLk6GJQsqaUBKTNV-1" vertex="1">
          <mxGeometry x="640" y="440" width="80" height="40" as="geometry" />
        </mxCell>
        <mxCell id="ptmRUTfebEnuRYv2-NBV-59" style="edgeStyle=orthogonalEdgeStyle;rounded=0;orthogonalLoop=1;jettySize=auto;html=1;exitX=0;exitY=0.5;exitDx=0;exitDy=0;entryX=1;entryY=0.5;entryDx=0;entryDy=0;endArrow=none;endFill=0;align=center;" parent="WIyWlLk6GJQsqaUBKTNV-1" source="ptmRUTfebEnuRYv2-NBV-53" target="ptmRUTfebEnuRYv2-NBV-45" edge="1">
          <mxGeometry relative="1" as="geometry" />
        </mxCell>
        <mxCell id="ptmRUTfebEnuRYv2-NBV-53" value="&lt;span class=&quot;HwtZe&quot; lang=&quot;en&quot;&gt;email&lt;/span&gt;" style="ellipse;whiteSpace=wrap;html=1;align=center;" parent="WIyWlLk6GJQsqaUBKTNV-1" vertex="1">
          <mxGeometry x="640" y="500" width="80" height="40" as="geometry" />
        </mxCell>
        <mxCell id="ptmRUTfebEnuRYv2-NBV-60" style="edgeStyle=orthogonalEdgeStyle;rounded=0;orthogonalLoop=1;jettySize=auto;html=1;exitX=0;exitY=0.5;exitDx=0;exitDy=0;entryX=1;entryY=0.5;entryDx=0;entryDy=0;endArrow=none;endFill=0;align=center;" parent="WIyWlLk6GJQsqaUBKTNV-1" source="ptmRUTfebEnuRYv2-NBV-54" target="ptmRUTfebEnuRYv2-NBV-45" edge="1">
          <mxGeometry relative="1" as="geometry" />
        </mxCell>
        <mxCell id="ptmRUTfebEnuRYv2-NBV-54" value="&lt;span class=&quot;HwtZe&quot; lang=&quot;en&quot;&gt;password hash&lt;/span&gt;" style="ellipse;whiteSpace=wrap;html=1;align=center;" parent="WIyWlLk6GJQsqaUBKTNV-1" vertex="1">
          <mxGeometry x="640" y="560" width="80" height="40" as="geometry" />
        </mxCell>
        <mxCell id="ptmRUTfebEnuRYv2-NBV-61" style="edgeStyle=orthogonalEdgeStyle;rounded=0;orthogonalLoop=1;jettySize=auto;html=1;exitX=0;exitY=0.5;exitDx=0;exitDy=0;entryX=1;entryY=0.5;entryDx=0;entryDy=0;endArrow=none;endFill=0;align=center;" parent="WIyWlLk6GJQsqaUBKTNV-1" source="ptmRUTfebEnuRYv2-NBV-55" target="ptmRUTfebEnuRYv2-NBV-45" edge="1">
          <mxGeometry relative="1" as="geometry" />
        </mxCell>
        <mxCell id="ptmRUTfebEnuRYv2-NBV-55" value="&lt;span class=&quot;HwtZe&quot; lang=&quot;en&quot;&gt;date of birth&lt;/span&gt;" style="ellipse;whiteSpace=wrap;html=1;align=center;" parent="WIyWlLk6GJQsqaUBKTNV-1" vertex="1">
          <mxGeometry x="640" y="620" width="80" height="40" as="geometry" />
        </mxCell>
        <mxCell id="ptmRUTfebEnuRYv2-NBV-79" style="edgeStyle=orthogonalEdgeStyle;rounded=0;orthogonalLoop=1;jettySize=auto;html=1;exitX=0;exitY=0.5;exitDx=0;exitDy=0;entryX=1;entryY=0.5;entryDx=0;entryDy=0;endArrow=none;endFill=0;align=center;" parent="WIyWlLk6GJQsqaUBKTNV-1" source="ptmRUTfebEnuRYv2-NBV-62" target="ptmRUTfebEnuRYv2-NBV-78" edge="1">
          <mxGeometry relative="1" as="geometry" />
        </mxCell>
        <mxCell id="ptmRUTfebEnuRYv2-NBV-81" style="edgeStyle=orthogonalEdgeStyle;rounded=0;orthogonalLoop=1;jettySize=auto;html=1;exitX=0;exitY=0.5;exitDx=0;exitDy=0;entryX=1;entryY=0.5;entryDx=0;entryDy=0;endArrow=none;endFill=0;align=center;" parent="WIyWlLk6GJQsqaUBKTNV-1" source="ptmRUTfebEnuRYv2-NBV-62" target="ptmRUTfebEnuRYv2-NBV-80" edge="1">
          <mxGeometry relative="1" as="geometry" />
        </mxCell>
        <mxCell id="ptmRUTfebEnuRYv2-NBV-82" style="edgeStyle=orthogonalEdgeStyle;rounded=0;orthogonalLoop=1;jettySize=auto;html=1;exitX=0.5;exitY=1;exitDx=0;exitDy=0;entryX=0.5;entryY=0;entryDx=0;entryDy=0;endArrow=none;endFill=0;align=center;" parent="WIyWlLk6GJQsqaUBKTNV-1" source="ptmRUTfebEnuRYv2-NBV-62" target="ptmRUTfebEnuRYv2-NBV-67" edge="1">
          <mxGeometry relative="1" as="geometry" />
        </mxCell>
        <mxCell id="ptmRUTfebEnuRYv2-NBV-84" style="edgeStyle=orthogonalEdgeStyle;rounded=0;orthogonalLoop=1;jettySize=auto;html=1;exitX=1;exitY=0.75;exitDx=0;exitDy=0;entryX=0;entryY=0.5;entryDx=0;entryDy=0;endArrow=none;endFill=0;align=center;" parent="WIyWlLk6GJQsqaUBKTNV-1" source="ptmRUTfebEnuRYv2-NBV-62" target="ptmRUTfebEnuRYv2-NBV-63" edge="1">
          <mxGeometry relative="1" as="geometry" />
        </mxCell>
        <mxCell id="UTgqOE8mSKzdRIAE9cUG-27" style="edgeStyle=orthogonalEdgeStyle;rounded=0;orthogonalLoop=1;jettySize=auto;html=1;exitX=0;exitY=0.5;exitDx=0;exitDy=0;entryX=0;entryY=0.5;entryDx=0;entryDy=0;endArrow=none;endFill=0;align=center;" edge="1" parent="WIyWlLk6GJQsqaUBKTNV-1" source="ptmRUTfebEnuRYv2-NBV-62" target="UTgqOE8mSKzdRIAE9cUG-26">
          <mxGeometry relative="1" as="geometry" />
        </mxCell>
        <mxCell id="ptmRUTfebEnuRYv2-NBV-62" value="Orders" style="rounded=0;whiteSpace=wrap;html=1;align=center;" parent="WIyWlLk6GJQsqaUBKTNV-1" vertex="1">
          <mxGeometry x="160" y="120" width="120" height="40" as="geometry" />
        </mxCell>
        <mxCell id="ptmRUTfebEnuRYv2-NBV-64" style="edgeStyle=orthogonalEdgeStyle;rounded=0;orthogonalLoop=1;jettySize=auto;html=1;exitX=1;exitY=0.5;exitDx=0;exitDy=0;entryX=0;entryY=0.5;entryDx=0;entryDy=0;endArrow=none;endFill=0;align=center;" parent="WIyWlLk6GJQsqaUBKTNV-1" source="ptmRUTfebEnuRYv2-NBV-63" target="ptmRUTfebEnuRYv2-NBV-45" edge="1">
          <mxGeometry relative="1" as="geometry" />
        </mxCell>
        <mxCell id="ptmRUTfebEnuRYv2-NBV-63" value="customer" style="rhombus;whiteSpace=wrap;html=1;align=center;" parent="WIyWlLk6GJQsqaUBKTNV-1" vertex="1">
          <mxGeometry x="320" y="200" width="120" height="80" as="geometry" />
        </mxCell>
        <mxCell id="UTgqOE8mSKzdRIAE9cUG-0" style="edgeStyle=orthogonalEdgeStyle;rounded=0;orthogonalLoop=1;jettySize=auto;html=1;exitX=0.5;exitY=1;exitDx=0;exitDy=0;entryX=0.75;entryY=0;entryDx=0;entryDy=0;endArrow=none;endFill=0;align=center;" edge="1" parent="WIyWlLk6GJQsqaUBKTNV-1" source="ptmRUTfebEnuRYv2-NBV-67" target="ptmRUTfebEnuRYv2-NBV-14">
          <mxGeometry relative="1" as="geometry">
            <mxPoint x="300" y="770" as="targetPoint" />
            <Array as="points">
              <mxPoint x="220" y="360" />
              <mxPoint x="450" y="360" />
              <mxPoint x="450" y="800" />
              <mxPoint x="250" y="800" />
            </Array>
          </mxGeometry>
        </mxCell>
        <mxCell id="ptmRUTfebEnuRYv2-NBV-67" value="includes" style="rhombus;whiteSpace=wrap;html=1;align=center;" parent="WIyWlLk6GJQsqaUBKTNV-1" vertex="1">
          <mxGeometry x="160" y="240" width="120" height="80" as="geometry" />
        </mxCell>
        <mxCell id="UTgqOE8mSKzdRIAE9cUG-5" style="edgeStyle=orthogonalEdgeStyle;rounded=0;orthogonalLoop=1;jettySize=auto;html=1;exitX=1;exitY=0.5;exitDx=0;exitDy=0;entryX=0;entryY=0.5;entryDx=0;entryDy=0;endArrow=none;endFill=0;align=center;" edge="1" parent="WIyWlLk6GJQsqaUBKTNV-1" source="ptmRUTfebEnuRYv2-NBV-68" target="ptmRUTfebEnuRYv2-NBV-67">
          <mxGeometry relative="1" as="geometry" />
        </mxCell>
        <mxCell id="ptmRUTfebEnuRYv2-NBV-68" value="&lt;u&gt;ID&lt;/u&gt;" style="ellipse;whiteSpace=wrap;html=1;align=center;" parent="WIyWlLk6GJQsqaUBKTNV-1" vertex="1">
          <mxGeometry x="40" y="240" width="80" height="40" as="geometry" />
        </mxCell>
        <mxCell id="UTgqOE8mSKzdRIAE9cUG-6" style="edgeStyle=orthogonalEdgeStyle;rounded=0;orthogonalLoop=1;jettySize=auto;html=1;exitX=1;exitY=0.5;exitDx=0;exitDy=0;entryX=0;entryY=0.5;entryDx=0;entryDy=0;endArrow=none;endFill=0;align=center;" edge="1" parent="WIyWlLk6GJQsqaUBKTNV-1" source="ptmRUTfebEnuRYv2-NBV-76" target="ptmRUTfebEnuRYv2-NBV-67">
          <mxGeometry relative="1" as="geometry" />
        </mxCell>
        <mxCell id="ptmRUTfebEnuRYv2-NBV-76" value="&lt;div class=&quot;QmZWSe&quot;&gt;&lt;div class=&quot;DHcWmd&quot;&gt;&lt;/div&gt;&lt;/div&gt;&lt;div class=&quot;oSioSc&quot;&gt;&lt;div id=&quot;tw-target&quot;&gt;&lt;div id=&quot;kAz1tf&quot; class=&quot;g9WsWb PZPZlf&quot; data-attrid=&quot;tw-targetArea&quot; data-entityname=&quot;Google Translate&quot;&gt;&lt;div class=&quot;tw-ta-container F0azHf tw-nfl&quot; id=&quot;tw-target-text-container&quot; tabindex=&quot;0&quot;&gt;&lt;pre class=&quot;tw-data-text tw-text-large tw-ta&quot; data-placeholder=&quot;Vertaling&quot; id=&quot;tw-target-text&quot; style=&quot;&quot; data-ved=&quot;2ahUKEwi4oNbPg5aJAxWlQ6QEHYa2I5kQ3ewLegQIBxAT&quot; aria-label=&quot;Vertaalde tekst: number&quot; dir=&quot;ltr&quot;&gt;&lt;span class=&quot;Y2IQFc&quot; lang=&quot;en&quot;&gt;quantity&lt;/span&gt;&lt;/pre&gt;&lt;/div&gt;&lt;/div&gt;&lt;/div&gt;&lt;/div&gt;" style="ellipse;whiteSpace=wrap;html=1;align=center;" parent="WIyWlLk6GJQsqaUBKTNV-1" vertex="1">
          <mxGeometry x="40" y="290" width="80" height="40" as="geometry" />
        </mxCell>
        <mxCell id="ptmRUTfebEnuRYv2-NBV-78" value="&lt;div class=&quot;QmZWSe&quot;&gt;&lt;div class=&quot;DHcWmd&quot;&gt;&lt;/div&gt;&lt;/div&gt;&lt;div class=&quot;oSioSc&quot;&gt;&lt;div id=&quot;tw-target&quot;&gt;&lt;div id=&quot;kAz1tf&quot; class=&quot;g9WsWb PZPZlf&quot; data-attrid=&quot;tw-targetArea&quot; data-entityname=&quot;Google Translate&quot;&gt;&lt;div class=&quot;tw-ta-container F0azHf tw-nfl&quot; id=&quot;tw-target-text-container&quot; tabindex=&quot;0&quot;&gt;&lt;pre class=&quot;tw-data-text tw-text-large tw-ta&quot; data-placeholder=&quot;Vertaling&quot; id=&quot;tw-target-text&quot; style=&quot;&quot; data-ved=&quot;2ahUKEwi4oNbPg5aJAxWlQ6QEHYa2I5kQ3ewLegQIBxAT&quot; aria-label=&quot;Vertaalde tekst: number&quot; dir=&quot;ltr&quot;&gt;&lt;span class=&quot;Y2IQFc&quot; lang=&quot;en&quot;&gt;date&lt;/span&gt;&lt;/pre&gt;&lt;/div&gt;&lt;/div&gt;&lt;/div&gt;&lt;/div&gt;" style="ellipse;whiteSpace=wrap;html=1;align=center;" parent="WIyWlLk6GJQsqaUBKTNV-1" vertex="1">
          <mxGeometry x="40" y="60" width="80" height="40" as="geometry" />
        </mxCell>
        <mxCell id="ptmRUTfebEnuRYv2-NBV-80" value="&lt;u&gt;ID&lt;/u&gt;" style="ellipse;whiteSpace=wrap;html=1;align=center;" parent="WIyWlLk6GJQsqaUBKTNV-1" vertex="1">
          <mxGeometry x="40" y="10" width="80" height="40" as="geometry" />
        </mxCell>
        <mxCell id="ptmRUTfebEnuRYv2-NBV-89" style="edgeStyle=orthogonalEdgeStyle;rounded=0;orthogonalLoop=1;jettySize=auto;html=1;exitX=0.5;exitY=1;exitDx=0;exitDy=0;entryX=0.5;entryY=0;entryDx=0;entryDy=0;endArrow=none;endFill=0;align=center;" parent="WIyWlLk6GJQsqaUBKTNV-1" source="ptmRUTfebEnuRYv2-NBV-85" target="ptmRUTfebEnuRYv2-NBV-88" edge="1">
          <mxGeometry relative="1" as="geometry" />
        </mxCell>
        <mxCell id="ptmRUTfebEnuRYv2-NBV-91" style="edgeStyle=orthogonalEdgeStyle;rounded=0;orthogonalLoop=1;jettySize=auto;html=1;exitX=0;exitY=0.5;exitDx=0;exitDy=0;entryX=1;entryY=0.5;entryDx=0;entryDy=0;endArrow=none;endFill=0;align=center;" parent="WIyWlLk6GJQsqaUBKTNV-1" source="ptmRUTfebEnuRYv2-NBV-85" target="ptmRUTfebEnuRYv2-NBV-87" edge="1">
          <mxGeometry relative="1" as="geometry" />
        </mxCell>
        <mxCell id="Vg8v48jFvNyv6tP-DnCo-1" style="edgeStyle=orthogonalEdgeStyle;rounded=0;orthogonalLoop=1;jettySize=auto;html=1;exitX=1;exitY=0.5;exitDx=0;exitDy=0;entryX=0;entryY=0.5;entryDx=0;entryDy=0;endArrow=none;endFill=0;align=center;" parent="WIyWlLk6GJQsqaUBKTNV-1" source="ptmRUTfebEnuRYv2-NBV-85" target="Vg8v48jFvNyv6tP-DnCo-0" edge="1">
          <mxGeometry relative="1" as="geometry">
            <Array as="points">
              <mxPoint x="620" y="140" />
              <mxPoint x="620" y="260" />
            </Array>
          </mxGeometry>
        </mxCell>
        <mxCell id="ptmRUTfebEnuRYv2-NBV-85" value="&lt;span class=&quot;HwtZe&quot; lang=&quot;en&quot;&gt;Address&lt;/span&gt;" style="rounded=0;whiteSpace=wrap;html=1;align=center;" parent="WIyWlLk6GJQsqaUBKTNV-1" vertex="1">
          <mxGeometry x="480" y="120" width="120" height="40" as="geometry" />
        </mxCell>
        <mxCell id="ptmRUTfebEnuRYv2-NBV-93" style="edgeStyle=orthogonalEdgeStyle;rounded=0;orthogonalLoop=1;jettySize=auto;html=1;exitX=0;exitY=0.5;exitDx=0;exitDy=0;entryX=1;entryY=0.5;entryDx=0;entryDy=0;endArrow=none;endFill=0;align=center;" parent="WIyWlLk6GJQsqaUBKTNV-1" source="ptmRUTfebEnuRYv2-NBV-86" target="ptmRUTfebEnuRYv2-NBV-85" edge="1">
          <mxGeometry relative="1" as="geometry" />
        </mxCell>
        <mxCell id="ptmRUTfebEnuRYv2-NBV-86" value="&lt;u&gt;ID&lt;/u&gt;" style="ellipse;whiteSpace=wrap;html=1;align=center;" parent="WIyWlLk6GJQsqaUBKTNV-1" vertex="1">
          <mxGeometry x="640" y="120" width="80" height="40" as="geometry" />
        </mxCell>
        <mxCell id="ptmRUTfebEnuRYv2-NBV-92" style="edgeStyle=orthogonalEdgeStyle;rounded=0;orthogonalLoop=1;jettySize=auto;html=1;exitX=0;exitY=0.5;exitDx=0;exitDy=0;entryX=1;entryY=0.5;entryDx=0;entryDy=0;endArrow=none;endFill=0;align=center;" parent="WIyWlLk6GJQsqaUBKTNV-1" source="ptmRUTfebEnuRYv2-NBV-87" target="ptmRUTfebEnuRYv2-NBV-62" edge="1">
          <mxGeometry relative="1" as="geometry" />
        </mxCell>
        <mxCell id="ptmRUTfebEnuRYv2-NBV-87" value="&lt;span class=&quot;HwtZe&quot; lang=&quot;en&quot;&gt;destination&lt;/span&gt;" style="rhombus;whiteSpace=wrap;html=1;align=center;" parent="WIyWlLk6GJQsqaUBKTNV-1" vertex="1">
          <mxGeometry x="320" y="100" width="120" height="80" as="geometry" />
        </mxCell>
        <mxCell id="ptmRUTfebEnuRYv2-NBV-90" style="edgeStyle=orthogonalEdgeStyle;rounded=0;orthogonalLoop=1;jettySize=auto;html=1;exitX=0.5;exitY=1;exitDx=0;exitDy=0;entryX=0.5;entryY=0;entryDx=0;entryDy=0;endArrow=none;endFill=0;align=center;" parent="WIyWlLk6GJQsqaUBKTNV-1" source="ptmRUTfebEnuRYv2-NBV-88" target="ptmRUTfebEnuRYv2-NBV-45" edge="1">
          <mxGeometry relative="1" as="geometry" />
        </mxCell>
        <mxCell id="ptmRUTfebEnuRYv2-NBV-88" value="&lt;span class=&quot;HwtZe&quot; lang=&quot;en&quot;&gt;addresses&lt;/span&gt;" style="rhombus;whiteSpace=wrap;html=1;align=center;" parent="WIyWlLk6GJQsqaUBKTNV-1" vertex="1">
          <mxGeometry x="480" y="200" width="120" height="80" as="geometry" />
        </mxCell>
        <mxCell id="ptmRUTfebEnuRYv2-NBV-95" style="edgeStyle=orthogonalEdgeStyle;rounded=0;orthogonalLoop=1;jettySize=auto;html=1;exitX=0;exitY=0.5;exitDx=0;exitDy=0;entryX=1;entryY=0.5;entryDx=0;entryDy=0;endArrow=none;endFill=0;align=center;" parent="WIyWlLk6GJQsqaUBKTNV-1" source="ptmRUTfebEnuRYv2-NBV-94" target="ptmRUTfebEnuRYv2-NBV-85" edge="1">
          <mxGeometry relative="1" as="geometry" />
        </mxCell>
        <mxCell id="ptmRUTfebEnuRYv2-NBV-94" value="&lt;span class=&quot;HwtZe&quot; lang=&quot;en&quot;&gt;street&lt;/span&gt;" style="ellipse;whiteSpace=wrap;html=1;align=center;" parent="WIyWlLk6GJQsqaUBKTNV-1" vertex="1">
          <mxGeometry x="640" y="40" width="80" height="40" as="geometry" />
        </mxCell>
        <mxCell id="ptmRUTfebEnuRYv2-NBV-96" value="&lt;div class=&quot;QmZWSe&quot;&gt;&lt;div class=&quot;DHcWmd&quot;&gt;&lt;/div&gt;&lt;/div&gt;&lt;div class=&quot;oSioSc&quot;&gt;&lt;div id=&quot;tw-target&quot;&gt;&lt;div id=&quot;kAz1tf&quot; class=&quot;g9WsWb PZPZlf&quot; data-attrid=&quot;tw-targetArea&quot; data-entityname=&quot;Google Translate&quot;&gt;&lt;div class=&quot;tw-ta-container F0azHf tw-nfl&quot; id=&quot;tw-target-text-container&quot; tabindex=&quot;0&quot;&gt;&lt;pre class=&quot;tw-data-text tw-text-large tw-ta&quot; data-placeholder=&quot;Vertaling&quot; id=&quot;tw-target-text&quot; style=&quot;&quot; data-ved=&quot;2ahUKEwi4oNbPg5aJAxWlQ6QEHYa2I5kQ3ewLegQIBxAT&quot; aria-label=&quot;Vertaalde tekst: number&quot; dir=&quot;ltr&quot;&gt;&lt;span class=&quot;Y2IQFc&quot; lang=&quot;en&quot;&gt;date&lt;/span&gt;&lt;/pre&gt;&lt;/div&gt;&lt;/div&gt;&lt;/div&gt;&lt;/div&gt;" style="ellipse;whiteSpace=wrap;html=1;align=center;" parent="WIyWlLk6GJQsqaUBKTNV-1" vertex="1">
          <mxGeometry x="641" y="998" width="80" height="40" as="geometry" />
        </mxCell>
        <mxCell id="ptmRUTfebEnuRYv2-NBV-103" style="edgeStyle=orthogonalEdgeStyle;rounded=0;orthogonalLoop=1;jettySize=auto;html=1;exitX=0;exitY=0.5;exitDx=0;exitDy=0;entryX=1;entryY=0.5;entryDx=0;entryDy=0;endArrow=none;endFill=0;align=center;" parent="WIyWlLk6GJQsqaUBKTNV-1" source="ptmRUTfebEnuRYv2-NBV-98" target="ptmRUTfebEnuRYv2-NBV-85" edge="1">
          <mxGeometry relative="1" as="geometry" />
        </mxCell>
        <mxCell id="ptmRUTfebEnuRYv2-NBV-98" value="&lt;span class=&quot;HwtZe&quot; lang=&quot;en&quot;&gt;number&lt;/span&gt;" style="ellipse;whiteSpace=wrap;html=1;align=center;" parent="WIyWlLk6GJQsqaUBKTNV-1" vertex="1">
          <mxGeometry x="640" y="200" width="80" height="40" as="geometry" />
        </mxCell>
        <mxCell id="ptmRUTfebEnuRYv2-NBV-102" style="edgeStyle=orthogonalEdgeStyle;rounded=0;orthogonalLoop=1;jettySize=auto;html=1;exitX=0;exitY=0.5;exitDx=0;exitDy=0;entryX=1;entryY=0.5;entryDx=0;entryDy=0;endArrow=none;endFill=0;align=center;" parent="WIyWlLk6GJQsqaUBKTNV-1" source="ptmRUTfebEnuRYv2-NBV-99" target="ptmRUTfebEnuRYv2-NBV-85" edge="1">
          <mxGeometry relative="1" as="geometry">
            <Array as="points">
              <mxPoint x="620" y="180" />
              <mxPoint x="620" y="140" />
            </Array>
          </mxGeometry>
        </mxCell>
        <mxCell id="ptmRUTfebEnuRYv2-NBV-99" value="&lt;span class=&quot;HwtZe&quot; lang=&quot;en&quot;&gt;postal code&lt;/span&gt;" style="ellipse;whiteSpace=wrap;html=1;align=center;" parent="WIyWlLk6GJQsqaUBKTNV-1" vertex="1">
          <mxGeometry x="720" y="160" width="80" height="40" as="geometry" />
        </mxCell>
        <mxCell id="ptmRUTfebEnuRYv2-NBV-101" style="edgeStyle=orthogonalEdgeStyle;rounded=0;orthogonalLoop=1;jettySize=auto;html=1;exitX=0;exitY=0.5;exitDx=0;exitDy=0;entryX=1;entryY=0.5;entryDx=0;entryDy=0;endArrow=none;endFill=0;align=center;" parent="WIyWlLk6GJQsqaUBKTNV-1" source="ptmRUTfebEnuRYv2-NBV-100" target="ptmRUTfebEnuRYv2-NBV-85" edge="1">
          <mxGeometry relative="1" as="geometry">
            <Array as="points">
              <mxPoint x="620" y="100" />
              <mxPoint x="620" y="140" />
            </Array>
          </mxGeometry>
        </mxCell>
        <mxCell id="ptmRUTfebEnuRYv2-NBV-100" value="&lt;span class=&quot;HwtZe&quot; lang=&quot;en&quot;&gt;city&lt;/span&gt;" style="ellipse;whiteSpace=wrap;html=1;align=center;" parent="WIyWlLk6GJQsqaUBKTNV-1" vertex="1">
          <mxGeometry x="720" y="80" width="80" height="40" as="geometry" />
        </mxCell>
        <mxCell id="eDdaRQYXABxvL9sCNLr9-0" value="1" style="text;html=1;align=center;verticalAlign=middle;resizable=0;points=[];autosize=1;strokeColor=none;fillColor=none;" parent="WIyWlLk6GJQsqaUBKTNV-1" vertex="1">
          <mxGeometry x="270" y="118" width="30" height="30" as="geometry" />
        </mxCell>
        <mxCell id="eDdaRQYXABxvL9sCNLr9-1" value="1" style="text;html=1;align=center;verticalAlign=middle;resizable=0;points=[];autosize=1;strokeColor=none;fillColor=none;" parent="WIyWlLk6GJQsqaUBKTNV-1" vertex="1">
          <mxGeometry x="456" y="117" width="30" height="30" as="geometry" />
        </mxCell>
        <mxCell id="eDdaRQYXABxvL9sCNLr9-2" value="*" style="text;html=1;align=center;verticalAlign=middle;resizable=0;points=[];autosize=1;strokeColor=none;fillColor=none;" parent="WIyWlLk6GJQsqaUBKTNV-1" vertex="1">
          <mxGeometry x="531" y="155" width="30" height="30" as="geometry" />
        </mxCell>
        <mxCell id="eDdaRQYXABxvL9sCNLr9-3" value="1" style="text;html=1;align=center;verticalAlign=middle;resizable=0;points=[];autosize=1;strokeColor=none;fillColor=none;" parent="WIyWlLk6GJQsqaUBKTNV-1" vertex="1">
          <mxGeometry x="532" y="457" width="30" height="30" as="geometry" />
        </mxCell>
        <mxCell id="eDdaRQYXABxvL9sCNLr9-4" value="1" style="text;html=1;align=center;verticalAlign=middle;resizable=0;points=[];autosize=1;strokeColor=none;fillColor=none;" parent="WIyWlLk6GJQsqaUBKTNV-1" vertex="1">
          <mxGeometry x="458" y="477" width="30" height="30" as="geometry" />
        </mxCell>
        <mxCell id="eDdaRQYXABxvL9sCNLr9-5" value="*" style="text;html=1;align=center;verticalAlign=middle;resizable=0;points=[];autosize=1;strokeColor=none;fillColor=none;" parent="WIyWlLk6GJQsqaUBKTNV-1" vertex="1">
          <mxGeometry x="271" y="143" width="30" height="30" as="geometry" />
        </mxCell>
        <mxCell id="eDdaRQYXABxvL9sCNLr9-7" value="*" style="text;html=1;align=center;verticalAlign=middle;resizable=0;points=[];autosize=1;strokeColor=none;fillColor=none;" parent="WIyWlLk6GJQsqaUBKTNV-1" vertex="1">
          <mxGeometry x="250" y="819" width="30" height="30" as="geometry" />
        </mxCell>
        <mxCell id="eDdaRQYXABxvL9sCNLr9-8" value="1" style="text;html=1;align=center;verticalAlign=middle;resizable=0;points=[];autosize=1;strokeColor=none;fillColor=none;" parent="WIyWlLk6GJQsqaUBKTNV-1" vertex="1">
          <mxGeometry x="211" y="154" width="30" height="30" as="geometry" />
        </mxCell>
        <mxCell id="eDdaRQYXABxvL9sCNLr9-9" value="*" style="text;html=1;align=center;verticalAlign=middle;resizable=0;points=[];autosize=1;strokeColor=none;fillColor=none;" parent="WIyWlLk6GJQsqaUBKTNV-1" vertex="1">
          <mxGeometry x="213" y="310" width="30" height="30" as="geometry" />
        </mxCell>
        <mxCell id="eDdaRQYXABxvL9sCNLr9-10" value="1" style="text;html=1;align=center;verticalAlign=middle;resizable=0;points=[];autosize=1;strokeColor=none;fillColor=none;" parent="WIyWlLk6GJQsqaUBKTNV-1" vertex="1">
          <mxGeometry x="273" y="836" width="30" height="30" as="geometry" />
        </mxCell>
        <mxCell id="eDdaRQYXABxvL9sCNLr9-11" value="*" style="text;html=1;align=center;verticalAlign=middle;resizable=0;points=[];autosize=1;strokeColor=none;fillColor=none;" parent="WIyWlLk6GJQsqaUBKTNV-1" vertex="1">
          <mxGeometry x="457" y="840" width="30" height="30" as="geometry" />
        </mxCell>
        <mxCell id="Vg8v48jFvNyv6tP-DnCo-0" value="&lt;span class=&quot;HwtZe&quot; lang=&quot;en&quot;&gt;country&lt;/span&gt;" style="ellipse;whiteSpace=wrap;html=1;align=center;" parent="WIyWlLk6GJQsqaUBKTNV-1" vertex="1">
          <mxGeometry x="720" y="240" width="80" height="40" as="geometry" />
        </mxCell>
        <mxCell id="Vg8v48jFvNyv6tP-DnCo-4" style="edgeStyle=orthogonalEdgeStyle;rounded=0;orthogonalLoop=1;jettySize=auto;html=1;exitX=1;exitY=0.5;exitDx=0;exitDy=0;entryX=0;entryY=0.5;entryDx=0;entryDy=0;endArrow=none;endFill=0;align=center;" parent="WIyWlLk6GJQsqaUBKTNV-1" source="Vg8v48jFvNyv6tP-DnCo-3" target="ptmRUTfebEnuRYv2-NBV-14" edge="1">
          <mxGeometry relative="1" as="geometry" />
        </mxCell>
        <mxCell id="Vg8v48jFvNyv6tP-DnCo-3" value="stock" style="ellipse;whiteSpace=wrap;html=1;align=center;" parent="WIyWlLk6GJQsqaUBKTNV-1" vertex="1">
          <mxGeometry x="40" y="1040" width="80" height="40" as="geometry" />
        </mxCell>
        <mxCell id="Vg8v48jFvNyv6tP-DnCo-6" style="edgeStyle=orthogonalEdgeStyle;rounded=0;orthogonalLoop=1;jettySize=auto;html=1;exitX=1;exitY=0.5;exitDx=0;exitDy=0;entryX=0;entryY=0.5;entryDx=0;entryDy=0;endArrow=none;endFill=0;align=center;" parent="WIyWlLk6GJQsqaUBKTNV-1" source="Vg8v48jFvNyv6tP-DnCo-5" target="ptmRUTfebEnuRYv2-NBV-14" edge="1">
          <mxGeometry relative="1" as="geometry" />
        </mxCell>
        <mxCell id="Vg8v48jFvNyv6tP-DnCo-5" value="available" style="ellipse;whiteSpace=wrap;html=1;align=center;" parent="WIyWlLk6GJQsqaUBKTNV-1" vertex="1">
          <mxGeometry x="40" y="1120" width="80" height="40" as="geometry" />
        </mxCell>
        <mxCell id="Vg8v48jFvNyv6tP-DnCo-16" style="edgeStyle=orthogonalEdgeStyle;rounded=0;orthogonalLoop=1;jettySize=auto;html=1;entryX=0.5;entryY=1;entryDx=0;entryDy=0;endArrow=none;endFill=0;align=center;" parent="WIyWlLk6GJQsqaUBKTNV-1" source="Vg8v48jFvNyv6tP-DnCo-14" target="ptmRUTfebEnuRYv2-NBV-14" edge="1">
          <mxGeometry relative="1" as="geometry" />
        </mxCell>
        <mxCell id="Vg8v48jFvNyv6tP-DnCo-19" style="edgeStyle=orthogonalEdgeStyle;rounded=0;orthogonalLoop=1;jettySize=auto;html=1;exitX=0.5;exitY=1;exitDx=0;exitDy=0;entryX=0.5;entryY=0;entryDx=0;entryDy=0;endArrow=none;endFill=0;align=center;" parent="WIyWlLk6GJQsqaUBKTNV-1" source="Vg8v48jFvNyv6tP-DnCo-14" target="Vg8v48jFvNyv6tP-DnCo-18" edge="1">
          <mxGeometry relative="1" as="geometry">
            <Array as="points">
              <mxPoint x="380" y="1030" />
              <mxPoint x="380" y="1030" />
            </Array>
          </mxGeometry>
        </mxCell>
        <mxCell id="Vg8v48jFvNyv6tP-DnCo-14" value="ShoppingCard Product" style="rhombus;whiteSpace=wrap;html=1;align=center;" parent="WIyWlLk6GJQsqaUBKTNV-1" vertex="1">
          <mxGeometry x="320" y="920" width="120" height="80" as="geometry" />
        </mxCell>
        <mxCell id="Vg8v48jFvNyv6tP-DnCo-17" value="1" style="text;html=1;align=center;verticalAlign=middle;resizable=0;points=[];autosize=1;strokeColor=none;fillColor=none;" parent="WIyWlLk6GJQsqaUBKTNV-1" vertex="1">
          <mxGeometry x="213" y="880" width="30" height="30" as="geometry" />
        </mxCell>
        <mxCell id="Vg8v48jFvNyv6tP-DnCo-21" style="edgeStyle=orthogonalEdgeStyle;rounded=0;orthogonalLoop=1;jettySize=auto;html=1;exitX=1;exitY=0.5;exitDx=0;exitDy=0;entryX=0;entryY=0.5;entryDx=0;entryDy=0;endArrow=none;endFill=0;align=center;" parent="WIyWlLk6GJQsqaUBKTNV-1" source="Vg8v48jFvNyv6tP-DnCo-18" target="Vg8v48jFvNyv6tP-DnCo-20" edge="1">
          <mxGeometry relative="1" as="geometry" />
        </mxCell>
        <mxCell id="Vg8v48jFvNyv6tP-DnCo-27" style="edgeStyle=orthogonalEdgeStyle;rounded=0;orthogonalLoop=1;jettySize=auto;html=1;exitX=0.5;exitY=1;exitDx=0;exitDy=0;entryX=0.5;entryY=0;entryDx=0;entryDy=0;endArrow=none;endFill=0;align=center;" parent="WIyWlLk6GJQsqaUBKTNV-1" source="Vg8v48jFvNyv6tP-DnCo-18" target="Vg8v48jFvNyv6tP-DnCo-26" edge="1">
          <mxGeometry relative="1" as="geometry" />
        </mxCell>
        <mxCell id="Vg8v48jFvNyv6tP-DnCo-29" style="edgeStyle=orthogonalEdgeStyle;rounded=0;orthogonalLoop=1;jettySize=auto;html=1;exitX=0.5;exitY=1;exitDx=0;exitDy=0;entryX=0.5;entryY=0;entryDx=0;entryDy=0;endArrow=none;endFill=0;align=center;" parent="WIyWlLk6GJQsqaUBKTNV-1" source="Vg8v48jFvNyv6tP-DnCo-18" target="Vg8v48jFvNyv6tP-DnCo-30" edge="1">
          <mxGeometry relative="1" as="geometry">
            <mxPoint x="320" y="1120" as="targetPoint" />
          </mxGeometry>
        </mxCell>
        <mxCell id="Vg8v48jFvNyv6tP-DnCo-18" value="&lt;span class=&quot;HwtZe&quot; lang=&quot;en&quot;&gt;ShoppingCart&lt;/span&gt;" style="rounded=0;whiteSpace=wrap;html=1;align=center;" parent="WIyWlLk6GJQsqaUBKTNV-1" vertex="1">
          <mxGeometry x="320" y="1040" width="120" height="40" as="geometry" />
        </mxCell>
        <mxCell id="Vg8v48jFvNyv6tP-DnCo-33" style="edgeStyle=orthogonalEdgeStyle;rounded=0;orthogonalLoop=1;jettySize=auto;html=1;exitX=1;exitY=0.5;exitDx=0;exitDy=0;entryX=0.75;entryY=0;entryDx=0;entryDy=0;endArrow=none;endFill=0;align=center;" parent="WIyWlLk6GJQsqaUBKTNV-1" source="Vg8v48jFvNyv6tP-DnCo-20" target="ptmRUTfebEnuRYv2-NBV-45" edge="1">
          <mxGeometry relative="1" as="geometry">
            <Array as="points">
              <mxPoint x="810" y="1060" />
              <mxPoint x="810" y="300" />
              <mxPoint x="570" y="300" />
            </Array>
          </mxGeometry>
        </mxCell>
        <mxCell id="Vg8v48jFvNyv6tP-DnCo-20" value="ShoppingCart&lt;div&gt;Products&lt;/div&gt;" style="rhombus;whiteSpace=wrap;html=1;align=center;" parent="WIyWlLk6GJQsqaUBKTNV-1" vertex="1">
          <mxGeometry x="481" y="1020" width="120" height="80" as="geometry" />
        </mxCell>
        <mxCell id="Vg8v48jFvNyv6tP-DnCo-26" value="&lt;u&gt;ID&lt;/u&gt;" style="ellipse;whiteSpace=wrap;html=1;align=center;" parent="WIyWlLk6GJQsqaUBKTNV-1" vertex="1">
          <mxGeometry x="280" y="1120" width="80" height="40" as="geometry" />
        </mxCell>
        <mxCell id="Vg8v48jFvNyv6tP-DnCo-30" value="&lt;div class=&quot;QmZWSe&quot;&gt;&lt;div class=&quot;DHcWmd&quot;&gt;&lt;/div&gt;&lt;/div&gt;&lt;div class=&quot;oSioSc&quot;&gt;&lt;div id=&quot;tw-target&quot;&gt;&lt;div id=&quot;kAz1tf&quot; class=&quot;g9WsWb PZPZlf&quot; data-attrid=&quot;tw-targetArea&quot; data-entityname=&quot;Google Translate&quot;&gt;&lt;div class=&quot;tw-ta-container F0azHf tw-nfl&quot; id=&quot;tw-target-text-container&quot; tabindex=&quot;0&quot;&gt;&lt;pre class=&quot;tw-data-text tw-text-large tw-ta&quot; data-placeholder=&quot;Vertaling&quot; id=&quot;tw-target-text&quot; style=&quot;&quot; data-ved=&quot;2ahUKEwi4oNbPg5aJAxWlQ6QEHYa2I5kQ3ewLegQIBxAT&quot; aria-label=&quot;Vertaalde tekst: number&quot; dir=&quot;ltr&quot;&gt;quantity&lt;/pre&gt;&lt;/div&gt;&lt;/div&gt;&lt;/div&gt;&lt;/div&gt;" style="ellipse;whiteSpace=wrap;html=1;align=center;" parent="WIyWlLk6GJQsqaUBKTNV-1" vertex="1">
          <mxGeometry x="400" y="1120" width="80" height="40" as="geometry" />
        </mxCell>
        <mxCell id="Vg8v48jFvNyv6tP-DnCo-35" value="*" style="text;html=1;align=center;verticalAlign=middle;resizable=0;points=[];autosize=1;strokeColor=none;fillColor=none;" parent="WIyWlLk6GJQsqaUBKTNV-1" vertex="1">
          <mxGeometry x="372" y="1019" width="30" height="30" as="geometry" />
        </mxCell>
        <mxCell id="Vg8v48jFvNyv6tP-DnCo-36" value="1" style="text;html=1;align=center;verticalAlign=middle;resizable=0;points=[];autosize=1;strokeColor=none;fillColor=none;" parent="WIyWlLk6GJQsqaUBKTNV-1" vertex="1">
          <mxGeometry x="566" y="456" width="30" height="30" as="geometry" />
        </mxCell>
        <mxCell id="Vg8v48jFvNyv6tP-DnCo-37" value="*" style="text;html=1;align=center;verticalAlign=middle;resizable=0;points=[];autosize=1;strokeColor=none;fillColor=none;" parent="WIyWlLk6GJQsqaUBKTNV-1" vertex="1">
          <mxGeometry x="434" y="1038" width="30" height="30" as="geometry" />
        </mxCell>
        <mxCell id="pZAyCRl3GWHGPZismzDo-2" style="edgeStyle=orthogonalEdgeStyle;rounded=0;orthogonalLoop=1;jettySize=auto;html=1;exitX=0;exitY=0.5;exitDx=0;exitDy=0;entryX=1;entryY=0.5;entryDx=0;entryDy=0;endArrow=none;endFill=0;align=center;" parent="WIyWlLk6GJQsqaUBKTNV-1" source="pZAyCRl3GWHGPZismzDo-0" target="ptmRUTfebEnuRYv2-NBV-45" edge="1">
          <mxGeometry relative="1" as="geometry">
            <Array as="points">
              <mxPoint x="620" y="400" />
              <mxPoint x="620" y="500" />
            </Array>
          </mxGeometry>
        </mxCell>
        <mxCell id="pZAyCRl3GWHGPZismzDo-0" value="&lt;span class=&quot;HwtZe&quot; lang=&quot;en&quot;&gt;first_name&lt;/span&gt;" style="ellipse;whiteSpace=wrap;html=1;align=center;" parent="WIyWlLk6GJQsqaUBKTNV-1" vertex="1">
          <mxGeometry x="641" y="380" width="80" height="40" as="geometry" />
        </mxCell>
        <mxCell id="UTgqOE8mSKzdRIAE9cUG-28" style="edgeStyle=orthogonalEdgeStyle;rounded=0;orthogonalLoop=1;jettySize=auto;html=1;exitX=0.5;exitY=1;exitDx=0;exitDy=0;entryX=0.5;entryY=0;entryDx=0;entryDy=0;endArrow=none;endFill=0;align=center;" edge="1" parent="WIyWlLk6GJQsqaUBKTNV-1" source="UTgqOE8mSKzdRIAE9cUG-7" target="UTgqOE8mSKzdRIAE9cUG-8">
          <mxGeometry relative="1" as="geometry">
            <Array as="points">
              <mxPoint x="420" y="1280" />
              <mxPoint x="360" y="1280" />
            </Array>
          </mxGeometry>
        </mxCell>
        <mxCell id="UTgqOE8mSKzdRIAE9cUG-29" style="edgeStyle=orthogonalEdgeStyle;rounded=0;orthogonalLoop=1;jettySize=auto;html=1;exitX=0.5;exitY=1;exitDx=0;exitDy=0;entryX=0.5;entryY=0;entryDx=0;entryDy=0;endArrow=none;endFill=0;align=center;" edge="1" parent="WIyWlLk6GJQsqaUBKTNV-1" source="UTgqOE8mSKzdRIAE9cUG-7" target="UTgqOE8mSKzdRIAE9cUG-10">
          <mxGeometry relative="1" as="geometry">
            <Array as="points">
              <mxPoint x="420" y="1280" />
              <mxPoint x="480" y="1280" />
            </Array>
          </mxGeometry>
        </mxCell>
        <mxCell id="UTgqOE8mSKzdRIAE9cUG-30" style="edgeStyle=orthogonalEdgeStyle;rounded=0;orthogonalLoop=1;jettySize=auto;html=1;exitX=0.5;exitY=1;exitDx=0;exitDy=0;endArrow=none;endFill=0;align=center;" edge="1" parent="WIyWlLk6GJQsqaUBKTNV-1" source="UTgqOE8mSKzdRIAE9cUG-7" target="UTgqOE8mSKzdRIAE9cUG-12">
          <mxGeometry relative="1" as="geometry">
            <Array as="points">
              <mxPoint x="420" y="1280" />
              <mxPoint x="600" y="1280" />
            </Array>
          </mxGeometry>
        </mxCell>
        <mxCell id="UTgqOE8mSKzdRIAE9cUG-31" style="edgeStyle=orthogonalEdgeStyle;rounded=0;orthogonalLoop=1;jettySize=auto;html=1;exitX=0.5;exitY=1;exitDx=0;exitDy=0;endArrow=none;endFill=0;entryX=0.5;entryY=0;entryDx=0;entryDy=0;align=center;" edge="1" parent="WIyWlLk6GJQsqaUBKTNV-1" source="UTgqOE8mSKzdRIAE9cUG-7" target="UTgqOE8mSKzdRIAE9cUG-9">
          <mxGeometry relative="1" as="geometry">
            <Array as="points">
              <mxPoint x="420" y="1280" />
              <mxPoint x="240" y="1280" />
            </Array>
          </mxGeometry>
        </mxCell>
        <mxCell id="UTgqOE8mSKzdRIAE9cUG-32" style="edgeStyle=orthogonalEdgeStyle;rounded=0;orthogonalLoop=1;jettySize=auto;html=1;exitX=0.5;exitY=1;exitDx=0;exitDy=0;endArrow=none;endFill=0;entryX=0.5;entryY=0;entryDx=0;entryDy=0;align=center;" edge="1" parent="WIyWlLk6GJQsqaUBKTNV-1" source="UTgqOE8mSKzdRIAE9cUG-7" target="UTgqOE8mSKzdRIAE9cUG-11">
          <mxGeometry relative="1" as="geometry">
            <Array as="points">
              <mxPoint x="420" y="1280" />
              <mxPoint x="120" y="1280" />
            </Array>
          </mxGeometry>
        </mxCell>
        <mxCell id="UTgqOE8mSKzdRIAE9cUG-34" style="edgeStyle=orthogonalEdgeStyle;rounded=0;orthogonalLoop=1;jettySize=auto;html=1;exitX=0.5;exitY=1;exitDx=0;exitDy=0;entryX=0.5;entryY=0;entryDx=0;entryDy=0;endArrow=none;endFill=0;align=center;" edge="1" parent="WIyWlLk6GJQsqaUBKTNV-1" source="UTgqOE8mSKzdRIAE9cUG-7" target="UTgqOE8mSKzdRIAE9cUG-13">
          <mxGeometry relative="1" as="geometry">
            <Array as="points">
              <mxPoint x="420" y="1280" />
              <mxPoint x="720" y="1280" />
            </Array>
          </mxGeometry>
        </mxCell>
        <mxCell id="UTgqOE8mSKzdRIAE9cUG-7" value="&lt;span class=&quot;HwtZe&quot; lang=&quot;en&quot;&gt;Admins&lt;/span&gt;" style="rounded=0;whiteSpace=wrap;html=1;align=center;" vertex="1" parent="WIyWlLk6GJQsqaUBKTNV-1">
          <mxGeometry x="360" y="1200" width="120" height="40" as="geometry" />
        </mxCell>
        <mxCell id="UTgqOE8mSKzdRIAE9cUG-8" value="&lt;u&gt;ID&lt;/u&gt;" style="ellipse;whiteSpace=wrap;html=1;align=center;" vertex="1" parent="WIyWlLk6GJQsqaUBKTNV-1">
          <mxGeometry x="320" y="1319" width="80" height="40" as="geometry" />
        </mxCell>
        <mxCell id="UTgqOE8mSKzdRIAE9cUG-9" value="username" style="ellipse;whiteSpace=wrap;html=1;align=center;" vertex="1" parent="WIyWlLk6GJQsqaUBKTNV-1">
          <mxGeometry x="200" y="1319" width="80" height="40" as="geometry" />
        </mxCell>
        <mxCell id="UTgqOE8mSKzdRIAE9cUG-10" value="first name" style="ellipse;whiteSpace=wrap;html=1;align=center;" vertex="1" parent="WIyWlLk6GJQsqaUBKTNV-1">
          <mxGeometry x="440" y="1319" width="80" height="40" as="geometry" />
        </mxCell>
        <mxCell id="UTgqOE8mSKzdRIAE9cUG-11" value="last name" style="ellipse;whiteSpace=wrap;html=1;align=center;" vertex="1" parent="WIyWlLk6GJQsqaUBKTNV-1">
          <mxGeometry x="80" y="1319" width="80" height="40" as="geometry" />
        </mxCell>
        <mxCell id="UTgqOE8mSKzdRIAE9cUG-12" value="role" style="ellipse;whiteSpace=wrap;html=1;align=center;" vertex="1" parent="WIyWlLk6GJQsqaUBKTNV-1">
          <mxGeometry x="563" y="1319" width="80" height="40" as="geometry" />
        </mxCell>
        <mxCell id="UTgqOE8mSKzdRIAE9cUG-13" value="password hash" style="ellipse;whiteSpace=wrap;html=1;align=center;" vertex="1" parent="WIyWlLk6GJQsqaUBKTNV-1">
          <mxGeometry x="680" y="1319" width="80" height="40" as="geometry" />
        </mxCell>
        <mxCell id="UTgqOE8mSKzdRIAE9cUG-15" value="level" style="ellipse;whiteSpace=wrap;html=1;align=center;" vertex="1" parent="WIyWlLk6GJQsqaUBKTNV-1">
          <mxGeometry x="340" y="400" width="80" height="40" as="geometry" />
        </mxCell>
        <mxCell id="UTgqOE8mSKzdRIAE9cUG-18" style="edgeStyle=orthogonalEdgeStyle;rounded=0;orthogonalLoop=1;jettySize=auto;html=1;exitX=1;exitY=0.5;exitDx=0;exitDy=0;entryX=0;entryY=0.5;entryDx=0;entryDy=0;endArrow=none;endFill=0;align=center;" edge="1" parent="WIyWlLk6GJQsqaUBKTNV-1" source="UTgqOE8mSKzdRIAE9cUG-17" target="ptmRUTfebEnuRYv2-NBV-14">
          <mxGeometry relative="1" as="geometry" />
        </mxCell>
        <mxCell id="UTgqOE8mSKzdRIAE9cUG-17" value="&lt;div class=&quot;lRu31&quot; dir=&quot;ltr&quot;&gt;manufacturer&lt;div class=&quot;OvtS8d&quot;&gt;&lt;/div&gt;&lt;div id=&quot;ow11&quot;&gt;&lt;/div&gt;&lt;/div&gt;&lt;div aria-hidden=&quot;true&quot; class=&quot;UdTY9 WdefRb&quot; data-location=&quot;2&quot;&gt;&lt;div class=&quot;kO6q6e&quot;&gt;&lt;/div&gt;&lt;/div&gt;" style="ellipse;whiteSpace=wrap;html=1;align=center;" vertex="1" parent="WIyWlLk6GJQsqaUBKTNV-1">
          <mxGeometry x="40" y="720" width="80" height="40" as="geometry" />
        </mxCell>
        <mxCell id="UTgqOE8mSKzdRIAE9cUG-19" value="&lt;span class=&quot;HwtZe&quot; lang=&quot;en&quot;&gt;delete&lt;/span&gt;" style="ellipse;whiteSpace=wrap;html=1;align=center;" vertex="1" parent="WIyWlLk6GJQsqaUBKTNV-1">
          <mxGeometry x="640" y="680" width="80" height="40" as="geometry" />
        </mxCell>
        <mxCell id="UTgqOE8mSKzdRIAE9cUG-22" style="edgeStyle=orthogonalEdgeStyle;rounded=0;orthogonalLoop=1;jettySize=auto;html=1;exitX=1;exitY=0.5;exitDx=0;exitDy=0;entryX=0;entryY=0.5;entryDx=0;entryDy=0;endArrow=none;endFill=0;align=center;" edge="1" parent="WIyWlLk6GJQsqaUBKTNV-1" source="UTgqOE8mSKzdRIAE9cUG-21" target="ptmRUTfebEnuRYv2-NBV-62">
          <mxGeometry relative="1" as="geometry" />
        </mxCell>
        <mxCell id="UTgqOE8mSKzdRIAE9cUG-21" value="&lt;div class=&quot;QmZWSe&quot;&gt;&lt;div class=&quot;DHcWmd&quot;&gt;&lt;/div&gt;&lt;/div&gt;&lt;div class=&quot;oSioSc&quot;&gt;&lt;div id=&quot;tw-target&quot;&gt;&lt;div id=&quot;kAz1tf&quot; class=&quot;g9WsWb PZPZlf&quot; data-attrid=&quot;tw-targetArea&quot; data-entityname=&quot;Google Translate&quot;&gt;&lt;div class=&quot;tw-ta-container F0azHf tw-nfl&quot; id=&quot;tw-target-text-container&quot; tabindex=&quot;0&quot;&gt;&lt;pre class=&quot;tw-data-text tw-text-large tw-ta&quot; data-placeholder=&quot;Vertaling&quot; id=&quot;tw-target-text&quot; style=&quot;&quot; data-ved=&quot;2ahUKEwi4oNbPg5aJAxWlQ6QEHYa2I5kQ3ewLegQIBxAT&quot; aria-label=&quot;Vertaalde tekst: number&quot; dir=&quot;ltr&quot;&gt;&lt;span class=&quot;Y2IQFc&quot; lang=&quot;en&quot;&gt;status&lt;/span&gt;&lt;/pre&gt;&lt;/div&gt;&lt;/div&gt;&lt;/div&gt;&lt;/div&gt;" style="ellipse;whiteSpace=wrap;html=1;align=center;" vertex="1" parent="WIyWlLk6GJQsqaUBKTNV-1">
          <mxGeometry x="40" y="120" width="80" height="40" as="geometry" />
        </mxCell>
        <mxCell id="UTgqOE8mSKzdRIAE9cUG-24" style="edgeStyle=orthogonalEdgeStyle;rounded=0;orthogonalLoop=1;jettySize=auto;html=1;exitX=1;exitY=0.5;exitDx=0;exitDy=0;entryX=0;entryY=0.5;entryDx=0;entryDy=0;endArrow=none;endFill=0;align=center;" edge="1" parent="WIyWlLk6GJQsqaUBKTNV-1" source="UTgqOE8mSKzdRIAE9cUG-23" target="ptmRUTfebEnuRYv2-NBV-62">
          <mxGeometry relative="1" as="geometry" />
        </mxCell>
        <mxCell id="UTgqOE8mSKzdRIAE9cUG-23" value="&lt;div class=&quot;QmZWSe&quot;&gt;&lt;div class=&quot;DHcWmd&quot;&gt;&lt;/div&gt;&lt;/div&gt;&lt;div class=&quot;oSioSc&quot;&gt;&lt;div id=&quot;tw-target&quot;&gt;&lt;div id=&quot;kAz1tf&quot; class=&quot;g9WsWb PZPZlf&quot; data-attrid=&quot;tw-targetArea&quot; data-entityname=&quot;Google Translate&quot;&gt;&lt;div class=&quot;tw-ta-container F0azHf tw-nfl&quot; id=&quot;tw-target-text-container&quot; tabindex=&quot;0&quot;&gt;&lt;pre class=&quot;tw-data-text tw-text-large tw-ta&quot; data-placeholder=&quot;Vertaling&quot; id=&quot;tw-target-text&quot; style=&quot;&quot; data-ved=&quot;2ahUKEwi4oNbPg5aJAxWlQ6QEHYa2I5kQ3ewLegQIBxAT&quot; aria-label=&quot;Vertaalde tekst: number&quot; dir=&quot;ltr&quot;&gt;total&lt;br&gt;price&lt;/pre&gt;&lt;/div&gt;&lt;/div&gt;&lt;/div&gt;&lt;/div&gt;" style="ellipse;whiteSpace=wrap;html=1;align=center;" vertex="1" parent="WIyWlLk6GJQsqaUBKTNV-1">
          <mxGeometry x="40" y="180" width="80" height="40" as="geometry" />
        </mxCell>
        <mxCell id="UTgqOE8mSKzdRIAE9cUG-26" value="&lt;div class=&quot;QmZWSe&quot;&gt;&lt;div class=&quot;DHcWmd&quot;&gt;&lt;/div&gt;&lt;/div&gt;&lt;div class=&quot;oSioSc&quot;&gt;&lt;div id=&quot;tw-target&quot;&gt;&lt;div id=&quot;kAz1tf&quot; class=&quot;g9WsWb PZPZlf&quot; data-attrid=&quot;tw-targetArea&quot; data-entityname=&quot;Google Translate&quot;&gt;&lt;div class=&quot;tw-ta-container F0azHf tw-nfl&quot; id=&quot;tw-target-text-container&quot; tabindex=&quot;0&quot;&gt;&lt;pre class=&quot;tw-data-text tw-text-large tw-ta&quot; data-placeholder=&quot;Vertaling&quot; id=&quot;tw-target-text&quot; style=&quot;&quot; data-ved=&quot;2ahUKEwi4oNbPg5aJAxWlQ6QEHYa2I5kQ3ewLegQIBxAT&quot; aria-label=&quot;Vertaalde tekst: number&quot; dir=&quot;ltr&quot;&gt;&lt;span class=&quot;Y2IQFc&quot; lang=&quot;en&quot;&gt;address&lt;br&gt;id&lt;/span&gt;&lt;/pre&gt;&lt;/div&gt;&lt;/div&gt;&lt;/div&gt;&lt;/div&gt;" style="ellipse;whiteSpace=wrap;html=1;align=center;" vertex="1" parent="WIyWlLk6GJQsqaUBKTNV-1">
          <mxGeometry x="160" y="10" width="80" height="40" as="geometry" />
        </mxCell>
      </root>
    </mxGraphModel>
  </diagram>
</mxfile>
